<?xml version="1.0" encoding="UTF-8" standalone="no"?>
<!-- Created with Inkscape (http://www.inkscape.org/) -->

<svg
   xmlns:dc="http://purl.org/dc/elements/1.1/"
   xmlns:cc="http://creativecommons.org/ns#"
   xmlns:rdf="http://www.w3.org/1999/02/22-rdf-syntax-ns#"
   xmlns:svg="http://www.w3.org/2000/svg"
   xmlns="http://www.w3.org/2000/svg"
   xmlns:xlink="http://www.w3.org/1999/xlink"
   xmlns:sodipodi="http://sodipodi.sourceforge.net/DTD/sodipodi-0.dtd"
   xmlns:inkscape="http://www.inkscape.org/namespaces/inkscape"
   version="1.0"
   width="96"
   height="96"
   id="svg2408"
   inkscape:version="0.48.2 r9819"
   sodipodi:docname="ekiga.svg">
  <sodipodi:namedview
     pagecolor="#ffffff"
     bordercolor="#666666"
     borderopacity="1"
     objecttolerance="10"
     gridtolerance="10"
     guidetolerance="10"
     inkscape:pageopacity="0"
     inkscape:pageshadow="2"
     inkscape:window-width="1920"
     inkscape:window-height="1003"
     id="namedview75"
     showgrid="false"
     inkscape:zoom="2.4583333"
     inkscape:cx="48"
     inkscape:cy="48"
     inkscape:window-x="0"
     inkscape:window-y="25"
     inkscape:window-maximized="1"
     inkscape:current-layer="svg2408" />
  <defs
     id="defs2410">
    <linearGradient
       x1="45.447727"
       y1="92.539597"
       x2="45.447727"
       y2="7.0165396"
       id="ButtonShadow"
       gradientUnits="userSpaceOnUse"
       gradientTransform="scale(1.0058652,0.994169)">
      <stop
         id="stop3750"
         style="stop-color:#000000;stop-opacity:1"
         offset="0" />
      <stop
         id="stop3752"
         style="stop-color:#000000;stop-opacity:0.58823532"
         offset="1" />
    </linearGradient>
    <linearGradient
       id="linearGradient3737">
      <stop
         id="stop3739"
         style="stop-color:#ffffff;stop-opacity:1"
         offset="0" />
      <stop
         id="stop3741"
         style="stop-color:#ffffff;stop-opacity:0"
         offset="1" />
    </linearGradient>
    <filter
       color-interpolation-filters="sRGB"
       id="filter3174">
      <feGaussianBlur
         id="feGaussianBlur3176"
         stdDeviation="1.71" />
    </filter>
    <linearGradient
       x1="36.357143"
       y1="6"
       x2="36.357143"
       y2="63.893143"
       id="linearGradient3188"
       xlink:href="#linearGradient3737"
       gradientUnits="userSpaceOnUse" />
    <filter
       x="-0.192"
       y="-0.192"
       width="1.3839999"
       height="1.3839999"
       color-interpolation-filters="sRGB"
       id="filter3794">
      <feGaussianBlur
         id="feGaussianBlur3796"
         stdDeviation="5.28" />
    </filter>
    <linearGradient
       x1="48"
       y1="20.220806"
       x2="48"
       y2="138.66119"
       id="linearGradient3613"
       xlink:href="#linearGradient3737"
       gradientUnits="userSpaceOnUse" />
    <radialGradient
       cx="48"
       cy="90.171875"
       r="42"
       fx="48"
       fy="90.171875"
       id="radialGradient3619"
       xlink:href="#linearGradient3737"
       gradientUnits="userSpaceOnUse"
       gradientTransform="matrix(1.1573129,0,0,0.99590774,-7.5510206,0.19713193)" />
    <clipPath
       id="clipPath3613">
      <rect
         width="84"
         height="84"
         rx="6"
         ry="6"
         x="6"
         y="6"
         id="rect3615"
         style="fill:#ffffff;fill-opacity:1;fill-rule:nonzero;stroke:none" />
    </clipPath>
    <linearGradient
       x1="48"
       y1="90"
       x2="48"
       y2="5.9877172"
       id="linearGradient3617"
       xlink:href="#ButtonColor"
       gradientUnits="userSpaceOnUse" />
    <linearGradient
       x1="58.650177"
       y1="122"
       x2="58.650177"
       y2="5.4252338"
       id="ButtonColor"
       gradientUnits="userSpaceOnUse"
       gradientTransform="matrix(1.0172414,0,0,1.0172414,-1.1034483,-1.1034483)">
      <stop
         id="stop3189"
         style="stop-color:#e26f00;stop-opacity:1"
         offset="0" />
      <stop
         id="stop3191"
         style="stop-color:#f9a314;stop-opacity:1"
         offset="1" />
    </linearGradient>
    <radialGradient
       cx="10"
       cy="150.57812"
       r="54"
       fx="10"
       fy="150.57812"
       id="radialGradient7016"
       xlink:href="#linearGradient7010"
       gradientUnits="userSpaceOnUse"
       gradientTransform="matrix(1.4074074,-8.8003686e-8,2.839703e-8,0.45414222,-4.074078,17.616125)" />
    <linearGradient
       id="linearGradient7010">
      <stop
         id="stop7012"
         style="stop-color:#d93503;stop-opacity:1"
         offset="0" />
      <stop
         id="stop7014"
         style="stop-color:#d83603;stop-opacity:0"
         offset="1" />
    </linearGradient>
    <radialGradient
       cx="107.81625"
       cy="-22.578123"
       r="54"
       fx="107.81625"
       fy="-22.578123"
       id="radialGradient7004"
       xlink:href="#linearGradient6996"
       gradientUnits="userSpaceOnUse"
       gradientTransform="matrix(-1.2753709,3.9017201e-8,-1.4793166e-8,-0.48355014,216.33937,-0.917657)" />
    <linearGradient
       id="linearGradient6996">
      <stop
         id="stop6998"
         style="stop-color:#ffd812;stop-opacity:1"
         offset="0" />
      <stop
         id="stop7000"
         style="stop-color:#ffd812;stop-opacity:0"
         offset="1" />
    </linearGradient>
    <linearGradient
       id="linearGradient7018">
      <stop
         id="stop7020"
         style="stop-color:#ffffff;stop-opacity:1"
         offset="0" />
      <stop
         id="stop7022"
         style="stop-color:#ffffff;stop-opacity:1"
         offset="0.2" />
      <stop
         id="stop7024"
         style="stop-color:#ffde34;stop-opacity:1"
         offset="0.25276113" />
      <stop
         id="stop7026"
         style="stop-color:#ffd602;stop-opacity:0"
         offset="1" />
    </linearGradient>
    <linearGradient
       id="linearGradient6977">
      <stop
         id="stop6979"
         style="stop-color:#dc4300;stop-opacity:1"
         offset="0" />
      <stop
         id="stop6981"
         style="stop-color:#ae3500;stop-opacity:1"
         offset="1" />
    </linearGradient>
    <filter
       x="-0.18000001"
       y="-0.18000001"
       width="1.36"
       height="1.36"
       color-interpolation-filters="sRGB"
       id="filter7028">
      <feGaussianBlur
         id="feGaussianBlur7030"
         stdDeviation="1.1130742" />
    </filter>
    <radialGradient
       cx="-24.450422"
       cy="8.7608986"
       r="14.746116"
       fx="-24.450422"
       fy="8.7608986"
       id="radialGradient2878"
       xlink:href="#linearGradient7018"
       gradientUnits="userSpaceOnUse"
       gradientTransform="matrix(0.97684246,0,0,1.0276209,96.185651,43.30453)" />
    <linearGradient
       x1="61.625061"
       y1="19.577194"
       x2="61.625061"
       y2="110.35038"
       id="linearGradient2882"
       xlink:href="#linearGradient6977"
       gradientUnits="userSpaceOnUse"
       gradientTransform="matrix(0.66354945,0,0,0.66354945,4.1282175,5.0095632)" />
    <linearGradient
       x1="45.447727"
       y1="92.539597"
       x2="45.447727"
       y2="7.0165396"
       id="ButtonShadow-0"
       gradientUnits="userSpaceOnUse"
       gradientTransform="matrix(1.0058652,0,0,0.994169,100,0)">
      <stop
         id="stop3750-8"
         style="stop-color:#000000;stop-opacity:1"
         offset="0" />
      <stop
         id="stop3752-5"
         style="stop-color:#000000;stop-opacity:0.58823532"
         offset="1" />
    </linearGradient>
    <linearGradient
       x1="32.251034"
       y1="6.1317081"
       x2="32.251034"
       y2="90.238609"
       id="linearGradient3780"
       xlink:href="#ButtonShadow-0"
       gradientUnits="userSpaceOnUse"
       gradientTransform="matrix(1.0238095,0,0,1.0119048,-1.1428571,-98.071429)" />
    <linearGradient
       x1="32.251034"
       y1="6.1317081"
       x2="32.251034"
       y2="90.238609"
       id="linearGradient3772"
       xlink:href="#ButtonShadow-0"
       gradientUnits="userSpaceOnUse"
       gradientTransform="matrix(1.0238095,0,0,1.0119048,-1.1428571,-98.071429)" />
    <linearGradient
       x1="32.251034"
       y1="6.1317081"
       x2="32.251034"
       y2="90.238609"
       id="linearGradient3725"
       xlink:href="#ButtonShadow-0"
       gradientUnits="userSpaceOnUse"
       gradientTransform="matrix(1.0238095,0,0,1.0119048,-1.1428571,-98.071429)" />
    <linearGradient
       x1="32.251034"
       y1="6.1317081"
       x2="32.251034"
       y2="90.238609"
       id="linearGradient3721"
       xlink:href="#ButtonShadow-0"
       gradientUnits="userSpaceOnUse"
       gradientTransform="translate(0,-97)" />
    <linearGradient
       x1="32.251034"
       y1="6.1317081"
       x2="32.251034"
       y2="90.238609"
       id="linearGradient3059"
       xlink:href="#ButtonShadow-0"
       gradientUnits="userSpaceOnUse"
       gradientTransform="matrix(1.0238095,0,0,1.0119048,-1.1428571,-98.071429)" />
    <linearGradient
       inkscape:collect="always"
       xlink:href="#linearGradient6977"
       id="linearGradient3559"
       gradientUnits="userSpaceOnUse"
       gradientTransform="matrix(0.66354945,0,0,0.66354945,4.1282175,5.0095632)"
       x1="61.625061"
       y1="19.577194"
       x2="61.625061"
       y2="110.35038" />
    <radialGradient
       inkscape:collect="always"
       xlink:href="#linearGradient7018"
       id="radialGradient3561"
       gradientUnits="userSpaceOnUse"
       gradientTransform="matrix(0.97684246,0,0,1.0276209,96.185651,43.30453)"
       cx="-24.450422"
       cy="8.7608986"
       fx="-24.450422"
       fy="8.7608986"
       r="14.746116" />
    <radialGradient
       inkscape:collect="always"
       xlink:href="#linearGradient6996"
       id="radialGradient3563"
       gradientUnits="userSpaceOnUse"
       gradientTransform="matrix(-1.2753709,3.9017201e-8,-1.4793166e-8,-0.48355014,216.33937,-0.917657)"
       cx="107.81625"
       cy="-22.578123"
       fx="107.81625"
       fy="-22.578123"
       r="54" />
    <radialGradient
       inkscape:collect="always"
       xlink:href="#linearGradient7010"
       id="radialGradient3565"
       gradientUnits="userSpaceOnUse"
       gradientTransform="matrix(1.4074074,-8.8003686e-8,2.839703e-8,0.45414222,-4.074078,17.616125)"
       cx="10"
       cy="150.57812"
       fx="10"
       fy="150.57812"
       r="54" />
    <radialGradient
       inkscape:collect="always"
       xlink:href="#linearGradient7010"
       id="radialGradient3570"
       gradientUnits="userSpaceOnUse"
       gradientTransform="matrix(1.4074074,-8.8003686e-8,2.839703e-8,0.45414222,-4.074078,17.616125)"
       cx="10"
       cy="150.57812"
       fx="10"
       fy="150.57812"
       r="54" />
    <radialGradient
       inkscape:collect="always"
       xlink:href="#linearGradient6996"
       id="radialGradient3573"
       gradientUnits="userSpaceOnUse"
       gradientTransform="matrix(-1.2753709,3.9017201e-8,-1.4793166e-8,-0.48355014,216.33937,-0.917657)"
       cx="107.81625"
       cy="-22.578123"
       fx="107.81625"
       fy="-22.578123"
       r="54" />
    <radialGradient
       inkscape:collect="always"
       xlink:href="#linearGradient7018"
       id="radialGradient3576"
       gradientUnits="userSpaceOnUse"
       gradientTransform="matrix(0.97684246,0,0,1.0276209,96.185651,43.30453)"
       cx="-24.450422"
       cy="8.7608986"
       fx="-24.450422"
       fy="8.7608986"
       r="14.746116" />
    <linearGradient
       inkscape:collect="always"
       xlink:href="#linearGradient6977"
       id="linearGradient3580"
       gradientUnits="userSpaceOnUse"
       gradientTransform="matrix(0.66354945,0,0,0.66354945,4.1282175,5.0095632)"
       x1="61.625061"
       y1="19.577194"
       x2="61.625061"
       y2="110.35038" />
    <linearGradient
       inkscape:collect="always"
       xlink:href="#linearGradient9129"
       id="linearGradient3411"
       gradientUnits="userSpaceOnUse"
       x1="164.04555"
       y1="203.46565"
       x2="117.97289"
       y2="163.72694" />
    <linearGradient
       id="linearGradient9129">
      <stop
         id="stop9131"
         offset="0"
         style="stop-color:#ffffff;stop-opacity:1;" />
      <stop
         id="stop9133"
         offset="1"
         style="stop-color:#6a6a6a;stop-opacity:1;" />
    </linearGradient>
    <radialGradient
       inkscape:collect="always"
       xlink:href="#linearGradient9129"
       id="radialGradient3413"
       gradientUnits="userSpaceOnUse"
       gradientTransform="matrix(-0.6240182,-0.8458999,1.6126345,-1.2560677,-65.043367,356.01621)"
       cx="84.999969"
       cy="125.93361"
       fx="84.999969"
       fy="125.93361"
       r="37.642857" />
    <linearGradient
       id="linearGradient3487">
      <stop
         id="stop3489"
         offset="0"
         style="stop-color:#ffffff;stop-opacity:1;" />
      <stop
         id="stop3491"
         offset="1"
         style="stop-color:#6a6a6a;stop-opacity:1;" />
    </linearGradient>
    <linearGradient
       inkscape:collect="always"
       xlink:href="#linearGradient9129"
       id="linearGradient3389"
       gradientUnits="userSpaceOnUse"
       gradientTransform="matrix(0.16108513,0,0,0.16789652,11.177953,-21.296627)"
       x1="-21.413527"
       y1="157.81839"
       x2="118.68574"
       y2="157.81839" />
    <linearGradient
       id="linearGradient3494">
      <stop
         id="stop3496"
         offset="0"
         style="stop-color:#ffffff;stop-opacity:1;" />
      <stop
         id="stop3498"
         offset="1"
         style="stop-color:#6a6a6a;stop-opacity:1;" />
    </linearGradient>
    <linearGradient
       y2="163.72694"
       x2="117.97289"
       y1="203.46565"
       x1="164.04555"
       gradientUnits="userSpaceOnUse"
       id="linearGradient3503"
       xlink:href="#linearGradient9129"
       inkscape:collect="always" />
    <linearGradient
       inkscape:collect="always"
       xlink:href="#linearGradient9129"
       id="linearGradient3620"
       gradientUnits="userSpaceOnUse"
       gradientTransform="matrix(0.16108513,0,0,0.16789652,-67.968985,13.192523)"
       x1="-21.413527"
       y1="157.81839"
       x2="118.68574"
       y2="157.81839" />
    <linearGradient
       inkscape:collect="always"
       xlink:href="#linearGradient9129"
       id="linearGradient3622"
       gradientUnits="userSpaceOnUse"
       x1="164.04555"
       y1="203.46565"
       x2="117.97289"
       y2="163.72694" />
    <radialGradient
       inkscape:collect="always"
       xlink:href="#linearGradient9129"
       id="radialGradient3624"
       gradientUnits="userSpaceOnUse"
       gradientTransform="matrix(-0.6240182,-0.8458999,1.6126345,-1.2560677,-65.043367,356.01621)"
       cx="84.999969"
       cy="125.93361"
       fx="84.999969"
       fy="125.93361"
       r="37.642857" />
    <linearGradient
       inkscape:collect="always"
       xlink:href="#linearGradient9129"
       id="linearGradient3631"
       gradientUnits="userSpaceOnUse"
       x1="164.04555"
       y1="203.46565"
       x2="117.97289"
       y2="163.72694" />
    <linearGradient
       inkscape:collect="always"
       xlink:href="#linearGradient9129"
       id="linearGradient3633"
       gradientUnits="userSpaceOnUse"
       gradientTransform="matrix(0.16108513,0,0,0.16789652,-67.968985,13.192523)"
       x1="-21.413527"
       y1="157.81839"
       x2="118.68574"
       y2="157.81839" />
    <radialGradient
       inkscape:collect="always"
       xlink:href="#linearGradient9129"
       id="radialGradient3635"
       gradientUnits="userSpaceOnUse"
       gradientTransform="matrix(-0.6240182,-0.8458999,1.6126345,-1.2560677,-65.043367,356.01621)"
       cx="84.999969"
       cy="125.93361"
       fx="84.999969"
       fy="125.93361"
       r="37.642857" />
  </defs>
  <metadata
     id="metadata2413">
    <rdf:RDF>
      <cc:Work
         rdf:about="">
        <dc:format>image/svg+xml</dc:format>
        <dc:type
           rdf:resource="http://purl.org/dc/dcmitype/StillImage" />
        <dc:title></dc:title>
      </cc:Work>
    </rdf:RDF>
  </metadata>
  <g
     id="layer2"
     style="display:none">
    <rect
       width="86"
       height="85"
       rx="6"
       ry="6"
       x="5"
       y="7"
       id="rect3745"
       style="opacity:0.9;fill:url(#ButtonShadow);fill-opacity:1;fill-rule:nonzero;stroke:none;filter:url(#filter3174)" />
  </g>
  <g
     id="layer4"
     style="display:inline">
    <path
       d="m 12,-95.03125 c -5.5110903,0 -10.03125,4.52016 -10.03125,10.03125 l 0,71 c 0,5.5110902 4.5201598,10.03125 10.03125,10.03125 l 72,0 c 5.51109,0 10.03125,-4.5201597 10.03125,-10.03125 l 0,-71 c 0,-5.51109 -4.52016,-10.03125 -10.03125,-10.03125 l -72,0 z"
       transform="scale(1,-1)"
       id="path3786"
       style="opacity:0.07999998;fill:url(#linearGradient3059);fill-opacity:1;fill-rule:nonzero;stroke:none;display:inline" />
    <path
       d="m 12,-94.03125 c -4.971633,0 -9.03125,4.059617 -9.03125,9.03125 l 0,71 c 0,4.9716329 4.0596171,9.03125 9.03125,9.03125 l 72,0 c 4.971633,0 9.03125,-4.059617 9.03125,-9.03125 l 0,-71 c 0,-4.971633 -4.059617,-9.03125 -9.03125,-9.03125 l -72,0 z"
       transform="scale(1,-1)"
       id="path3778"
       style="opacity:0.1;fill:url(#linearGradient3780);fill-opacity:1;fill-rule:nonzero;stroke:none;display:inline" />
    <path
       d="m 12,-93 c -4.4091333,0 -8,3.590867 -8,8 l 0,71 c 0,4.4091333 3.5908667,8 8,8 l 72,0 c 4.409133,0 8,-3.5908667 8,-8 l 0,-71 c 0,-4.409133 -3.590867,-8 -8,-8 l -72,0 z"
       transform="scale(1,-1)"
       id="path3770"
       style="opacity:0.2;fill:url(#linearGradient3772);fill-opacity:1;fill-rule:nonzero;stroke:none;display:inline" />
    <rect
       width="86"
       height="85"
       rx="7"
       ry="7"
       x="5"
       y="-92"
       transform="scale(1,-1)"
       id="rect3723"
       style="opacity:0.3;fill:url(#linearGradient3725);fill-opacity:1;fill-rule:nonzero;stroke:none;display:inline" />
    <rect
       width="84"
       height="84"
       rx="6"
       ry="6"
       x="6"
       y="-91"
       transform="scale(1,-1)"
       id="rect3716"
       style="opacity:0.45;fill:url(#linearGradient3721);fill-opacity:1;fill-rule:nonzero;stroke:none;display:inline" />
  </g>
  <g
     id="layer1">
    <rect
       width="84"
       height="84"
       rx="6"
       ry="6"
       x="6"
       y="6"
       id="rect2419"
       style="fill:url(#linearGradient3617);fill-opacity:1;fill-rule:nonzero;stroke:none" />
    <path
       d="M 12,6 C 8.676,6 6,8.676 6,12 l 0,2 0,68 0,2 c 0,0.334721 0.04135,0.6507 0.09375,0.96875 0.0487,0.295596 0.09704,0.596915 0.1875,0.875 0.00988,0.03038 0.020892,0.0636 0.03125,0.09375 0.098865,0.287771 0.2348802,0.547452 0.375,0.8125 0.1445918,0.273507 0.3156161,0.535615 0.5,0.78125 0.1843839,0.245635 0.3737765,0.473472 0.59375,0.6875 0.439947,0.428056 0.94291,0.814526 1.5,1.09375 0.278545,0.139612 0.5734731,0.246947 0.875,0.34375 -0.2562018,-0.100222 -0.4867109,-0.236272 -0.71875,-0.375 -0.00741,-0.0044 -0.023866,0.0045 -0.03125,0 -0.031933,-0.0193 -0.062293,-0.04251 -0.09375,-0.0625 -0.120395,-0.0767 -0.2310226,-0.163513 -0.34375,-0.25 -0.1061728,-0.0808 -0.2132809,-0.161112 -0.3125,-0.25 C 8.4783201,88.557317 8.3087904,88.373362 8.15625,88.1875 8.0486711,88.057245 7.9378561,87.922215 7.84375,87.78125 7.818661,87.74287 7.805304,87.69538 7.78125,87.65625 7.716487,87.553218 7.6510225,87.451733 7.59375,87.34375 7.4927417,87.149044 7.3880752,86.928049 7.3125,86.71875 7.30454,86.69694 7.288911,86.6782 7.28125,86.65625 7.2494249,86.5643 7.2454455,86.469419 7.21875,86.375 7.1884177,86.268382 7.1483606,86.171969 7.125,86.0625 7.0521214,85.720988 7,85.364295 7,85 L 7,83 7,15 7,13 C 7,10.218152 9.2181517,8 12,8 l 2,0 68,0 2,0 c 2.781848,0 5,2.218152 5,5 l 0,2 0,68 0,2 c 0,0.364295 -0.05212,0.720988 -0.125,1.0625 -0.04415,0.206893 -0.08838,0.397658 -0.15625,0.59375 -0.0077,0.02195 -0.0233,0.04069 -0.03125,0.0625 -0.06274,0.173739 -0.138383,0.367449 -0.21875,0.53125 -0.04158,0.0828 -0.07904,0.169954 -0.125,0.25 -0.0546,0.09721 -0.126774,0.18835 -0.1875,0.28125 -0.09411,0.140965 -0.204921,0.275995 -0.3125,0.40625 -0.143174,0.17445 -0.303141,0.346998 -0.46875,0.5 -0.01117,0.0102 -0.01998,0.02115 -0.03125,0.03125 -0.138386,0.125556 -0.285091,0.234436 -0.4375,0.34375 -0.102571,0.07315 -0.204318,0.153364 -0.3125,0.21875 -0.0074,0.0045 -0.02384,-0.0044 -0.03125,0 -0.232039,0.138728 -0.462548,0.274778 -0.71875,0.375 0.301527,-0.0968 0.596455,-0.204138 0.875,-0.34375 0.55709,-0.279224 1.060053,-0.665694 1.5,-1.09375 0.219973,-0.214028 0.409366,-0.441865 0.59375,-0.6875 0.184384,-0.245635 0.355408,-0.507743 0.5,-0.78125 0.14012,-0.265048 0.276135,-0.524729 0.375,-0.8125 0.01041,-0.03078 0.02133,-0.06274 0.03125,-0.09375 0.09046,-0.278085 0.1388,-0.579404 0.1875,-0.875 C 89.95865,84.6507 90,84.334721 90,84 l 0,-2 0,-68 0,-2 C 90,8.676 87.324,6 84,6 L 12,6 z"
       inkscape:connector-curvature="0"
       id="rect3728"
       style="opacity:0.5;fill:url(#linearGradient3188);fill-opacity:1;fill-rule:nonzero;stroke:none" />
    <path
       d="M 12,90 C 8.676,90 6,87.324 6,84 L 6,82 6,14 6,12 c 0,-0.334721 0.04135,-0.6507 0.09375,-0.96875 0.0487,-0.295596 0.09704,-0.596915 0.1875,-0.875 C 6.29113,10.12587 6.302142,10.09265 6.3125,10.0625 6.411365,9.774729 6.5473802,9.515048 6.6875,9.25 6.8320918,8.976493 7.0031161,8.714385 7.1875,8.46875 7.3718839,8.223115 7.5612765,7.995278 7.78125,7.78125 8.221197,7.353194 8.72416,6.966724 9.28125,6.6875 9.559795,6.547888 9.8547231,6.440553 10.15625,6.34375 9.9000482,6.443972 9.6695391,6.580022 9.4375,6.71875 c -0.00741,0.0044 -0.023866,-0.0045 -0.03125,0 -0.031933,0.0193 -0.062293,0.04251 -0.09375,0.0625 -0.120395,0.0767 -0.2310226,0.163513 -0.34375,0.25 -0.1061728,0.0808 -0.2132809,0.161112 -0.3125,0.25 C 8.4783201,7.442683 8.3087904,7.626638 8.15625,7.8125 8.0486711,7.942755 7.9378561,8.077785 7.84375,8.21875 7.818661,8.25713 7.805304,8.30462 7.78125,8.34375 7.716487,8.446782 7.6510225,8.548267 7.59375,8.65625 7.4927417,8.850956 7.3880752,9.071951 7.3125,9.28125 7.30454,9.30306 7.288911,9.3218 7.28125,9.34375 7.2494249,9.4357 7.2454455,9.530581 7.21875,9.625 7.1884177,9.731618 7.1483606,9.828031 7.125,9.9375 7.0521214,10.279012 7,10.635705 7,11 l 0,2 0,68 0,2 c 0,2.781848 2.2181517,5 5,5 l 2,0 68,0 2,0 c 2.781848,0 5,-2.218152 5,-5 l 0,-2 0,-68 0,-2 C 89,10.635705 88.94788,10.279012 88.875,9.9375 88.83085,9.730607 88.78662,9.539842 88.71875,9.34375 88.71105,9.3218 88.69545,9.30306 88.6875,9.28125 88.62476,9.107511 88.549117,8.913801 88.46875,8.75 88.42717,8.6672 88.38971,8.580046 88.34375,8.5 88.28915,8.40279 88.216976,8.31165 88.15625,8.21875 88.06214,8.077785 87.951329,7.942755 87.84375,7.8125 87.700576,7.63805 87.540609,7.465502 87.375,7.3125 87.36383,7.3023 87.35502,7.29135 87.34375,7.28125 87.205364,7.155694 87.058659,7.046814 86.90625,6.9375 86.803679,6.86435 86.701932,6.784136 86.59375,6.71875 c -0.0074,-0.0045 -0.02384,0.0044 -0.03125,0 -0.232039,-0.138728 -0.462548,-0.274778 -0.71875,-0.375 0.301527,0.0968 0.596455,0.204138 0.875,0.34375 0.55709,0.279224 1.060053,0.665694 1.5,1.09375 0.219973,0.214028 0.409366,0.441865 0.59375,0.6875 0.184384,0.245635 0.355408,0.507743 0.5,0.78125 0.14012,0.265048 0.276135,0.524729 0.375,0.8125 0.01041,0.03078 0.02133,0.06274 0.03125,0.09375 0.09046,0.278085 0.1388,0.579404 0.1875,0.875 C 89.95865,11.3493 90,11.665279 90,12 l 0,2 0,68 0,2 c 0,3.324 -2.676,6 -6,6 l -72,0 z"
       inkscape:connector-curvature="0"
       id="path3615"
       style="opacity:0.2;fill:url(#radialGradient3619);fill-opacity:1;fill-rule:nonzero;stroke:none" />
  </g>
  <g
     id="layer5"
     style="display:inline">
    <rect
       width="66"
       height="66"
       rx="12"
       ry="12"
       x="15"
       y="15"
       clip-path="url(#clipPath3613)"
       id="rect3171"
       style="opacity:0.1;fill:url(#linearGradient3613);fill-opacity:1;fill-rule:nonzero;stroke:#ffffff;stroke-width:0.5;stroke-linecap:round;stroke-linejoin:miter;stroke-miterlimit:4;stroke-opacity:1;stroke-dasharray:none;stroke-dashoffset:0;filter:url(#filter3794)" />
  </g>
  <path
     style="opacity:0.8;fill:url(#radialGradient3573);fill-opacity:1;fill-rule:nonzero;stroke:none;display:inline"
     id="rect6985"
     inkscape:connector-curvature="0"
     d="M 12.814815,10.000003 C 11.255407,10.000003 10,11.25541 10,12.814818 l 0,8.092592 c 6.035454,-1.282508 12.339853,-1.979166 18.824074,-1.979166 22.433049,0 42.706833,8.139165 57.175926,21.221064 l 0,-27.33449 c 0,-1.559408 -1.255407,-2.814815 -2.814815,-2.814815 l -70.37037,0 z" />
  <path
     style="opacity:0.8;fill:url(#radialGradient3570);fill-opacity:1;fill-rule:nonzero;stroke:none;display:inline"
     id="path7006"
     inkscape:connector-curvature="0"
     d="M 83.185185,86 C 84.744593,86 86,84.74459 86,83.18519 L 86,75.0926 C 79.964544,76.3751 73.660147,77.07176 67.175926,77.07176 44.742877,77.07176 24.469093,68.932596 10,55.850697 L 10,83.18519 C 10,84.74459 11.255407,86 12.814815,86 l 70.37037,0 z" />
  <g
     id="g3626"
     transform="matrix(1.9242089,0,0,1.9242089,169.14831,-41.231111)">
    <path
       sodipodi:end="5.0305578"
       sodipodi:start="2.2957854"
       transform="matrix(-0.16972202,0,-0.00263561,0.25242133,-24.060976,-0.64869054)"
       d="m 131.25728,203.46565 c -16.6374,-10.91 -18.17584,-29.73734 -3.43621,-42.05203 10.65744,-8.9041 27.45002,-12.26151 42.71487,-8.54017 l -12.59018,28.29447 z"
       sodipodi:ry="29.789616"
       sodipodi:rx="40.24638"
       sodipodi:cy="181.16792"
       sodipodi:cx="157.94576"
       id="path6208"
       style="fill:url(#linearGradient3631);fill-opacity:1;stroke:none"
       sodipodi:type="arc" />
    <path
       inkscape:connector-curvature="0"
       sodipodi:nodetypes="ccccccccc"
       id="path6210"
       d="m -69.223023,45.456764 c 0.89045,-0.268098 1.01707,-1.705658 4.21159,-0.907703 2.875934,-0.06926 10.610776,-9.883863 16.796242,-1.670378 -0.652234,-1.6747 -3.76183,-6.101565 -8.648305,-6.413798 -3.337779,0.08549 -7.112793,2.653954 -10.557063,5.695669 2.476959,-2.794525 4.18193,-6.840492 11.34185,-6.365282 -1.613443,-1.204986 -3.117148,-1.556314 -5.991965,-1.136092 -3.490207,0.644595 -7.625521,4.944534 -9.602541,9.46359 1.468865,0.291852 1.731165,0.688724 2.450192,1.333994 z"
       style="fill:url(#linearGradient3633);fill-opacity:1;fill-rule:evenodd;stroke:none" />
    <path
       transform="matrix(-0.18405882,0.03299042,-0.03210616,-0.1791254,-52.497096,70.613981)"
       d="m 122.14286,125.93361 c 0,22.48588 -16.62943,40.71429 -37.14286,40.71429 -20.513433,0 -37.142857,-18.22841 -37.142857,-40.71429 0,-22.48588 16.629424,-40.714288 37.142857,-40.714288 20.51343,0 37.14286,18.228408 37.14286,40.714288 z"
       sodipodi:ry="40.714287"
       sodipodi:rx="37.142857"
       sodipodi:cy="125.93361"
       sodipodi:cx="85"
       id="path3318"
       style="fill:url(#radialGradient3635);fill-opacity:1;stroke:none"
       sodipodi:type="arc" />
  </g>
</svg>
